<?xml version="1.0" encoding="UTF-8" standalone="no"?>
<!-- Created with Inkscape (http://www.inkscape.org/) -->

<svg
   width="82.002998mm"
   height="24mm"
   viewBox="0 0 82.002996 24"
   version="1.1"
   id="svg5"
   inkscape:version="1.1.1 (3bf5ae0d25, 2021-09-20)"
   sodipodi:docname="Logo_Auxiliar_Completa_Colorida.svg"
   xmlns:inkscape="http://www.inkscape.org/namespaces/inkscape"
   xmlns:sodipodi="http://sodipodi.sourceforge.net/DTD/sodipodi-0.dtd"
   xmlns="http://www.w3.org/2000/svg"
   xmlns:svg="http://www.w3.org/2000/svg">
  <sodipodi:namedview
     id="namedview7"
     pagecolor="#505050"
     bordercolor="#ffffff"
     borderopacity="1"
     inkscape:pageshadow="0"
     inkscape:pageopacity="0"
     inkscape:pagecheckerboard="1"
     inkscape:document-units="mm"
     showgrid="false"
     inkscape:snap-bbox="true"
     inkscape:bbox-paths="true"
     inkscape:bbox-nodes="true"
     inkscape:snap-bbox-edge-midpoints="true"
     inkscape:snap-bbox-midpoints="true"
     inkscape:object-paths="true"
     inkscape:object-nodes="true"
     inkscape:snap-smooth-nodes="true"
     inkscape:snap-intersection-paths="true"
     inkscape:snap-midpoints="true"
     inkscape:snap-page="true"
     width="82.003mm"
     showguides="true"
     inkscape:guide-bbox="true"
     inkscape:zoom="0.5"
     inkscape:cx="308"
     inkscape:cy="223"
     inkscape:window-width="1366"
     inkscape:window-height="705"
     inkscape:window-x="-8"
     inkscape:window-y="-8"
     inkscape:window-maximized="1"
     inkscape:current-layer="layer2"
     inkscape:snap-global="true"
     inkscape:snap-nodes="true">
    <inkscape:grid
       type="xygrid"
       id="grid50699" />
  </sodipodi:namedview>
  <defs
     id="defs2" />
  <g
     inkscape:groupmode="layer"
     id="layer2"
     inkscape:label="Logo_Auxiliar_Completa_Colorida"
     style="display:inline">
    <g
       id="g1648"
       transform="translate(-1.8e-5,-38.271518)">
      <path
         id="path91675-0"
         style="color:#000000;font-weight:bold;font-size:134.924px;font-family:'Poiret One';-inkscape-font-specification:'Poiret One Bold';fill:#008040;fill-opacity:1;stroke:none;stroke-width:3.175;stroke-miterlimit:4;stroke-dasharray:none"
         d="m 78.565747,41.111701 c -0.559374,0 -1.060632,0.143182 -1.425236,0.513149 -0.364604,0.369964 -0.526066,0.922338 -0.526066,1.514636 0,0.592294 0.161462,1.14622 0.526066,1.516185 0.364604,0.369967 0.865862,0.513148 1.425236,0.513148 0.571407,0 1.078659,-0.139345 1.451589,-0.506947 0.37293,-0.367598 0.542605,-0.927092 0.542605,-1.522386 0,-0.595299 -0.169675,-1.153236 -0.542605,-1.520838 -0.37293,-0.367601 -0.880182,-0.506947 -1.451589,-0.506947 z M 5.9350383,50.270833 c -1.7014288,0 -3.2250983,0.425315 -4.3341025,1.519287 C 0.49193291,52.884091 0,54.518551 0,56.26995 c 0,1.751399 0.49193193,3.387924 1.6009358,4.481896 1.1090042,1.093973 2.6326748,1.518772 4.3341025,1.518772 1.7380262,0 3.2809084,-0.415777 4.4152347,-1.502751 1.134324,-1.086985 1.649511,-2.737641 1.649511,-4.497917 0,-1.760267 -0.515188,-3.409392 -1.649511,-4.496366 C 9.2159475,50.686599 7.6730645,50.270833 5.9350383,50.270833 Z" />
      <path
         id="path1188"
         style="color:#000000;font-weight:bold;font-size:29.526px;font-family:'Poiret One';-inkscape-font-specification:'Poiret One Bold';fill:#804000;fill-opacity:1;stroke:none;stroke-width:1.05833;-inkscape-stroke:none"
         d="m 35.682579,38.271566 c -3.276216,0 -6.141564,1.200264 -8.491987,3.550687 -2.350215,2.330347 -3.550688,5.176824 -3.550688,8.433594 0,2.077151 0.528321,4.054985 1.574064,5.900414 l 0.0021,0.0041 0.0021,0.0016 c 1.066388,1.825165 2.522448,3.302413 4.345472,4.408517 1.829271,1.109898 3.823383,1.671735 5.943307,1.671733 h 0.324527 c 2.198502,0 4.253058,-0.581375 6.123141,-1.732193 l 0.251664,-0.15658 v -2.388484 l -0.826305,0.564306 c -1.771642,1.206225 -3.65534,1.796791 -5.697328,1.796791 -2.766354,0 -5.084239,-0.973646 -7.064169,-2.97243 -1.980747,-1.999612 -2.947107,-4.330203 -2.947107,-7.097758 0,-2.788089 0.966124,-5.116774 2.945041,-7.095691 h 0.0021 v -0.0021 c 1.97993,-1.998787 4.298333,-2.97243 7.064687,-2.97243 2.041985,0 3.925167,0.590566 5.69681,1.796791 l 0.826304,0.564306 V 40.15052 l -0.261483,-0.154511 c -1.96357,-1.145418 -4.063132,-1.724443 -6.261631,-1.724443 z m 31.386716,3.925858 c -1.514906,0 -2.861357,0.531686 -3.935161,1.560629 -7.94e-4,5.29e-4 -0.0013,7.94e-4 -0.0021,0.0016 -7.93e-4,5.29e-4 -0.0013,0.0013 -0.0021,0.0021 -1.082485,1.019646 -1.638657,2.381504 -1.638657,3.955315 v 14.199131 h 2.004009 V 56.83796 h 4.132564 v -1.884637 h -4.132564 v -7.236251 c 0,-1.082945 0.331613,-1.912012 1.021128,-2.603461 l 0.0021,-0.0021 0.0021,-0.0021 c 0.716759,-0.697473 1.530636,-1.027327 2.548684,-1.027327 h 0.529682 v -1.88464 z m -15.560291,5.048787 c -2.054079,0 -3.867139,0.756672 -5.331973,2.220537 -1.466168,1.44522 -2.224672,3.240559 -2.224672,5.277197 0,2.036635 0.758309,3.840808 2.222603,5.305102 l 0.0021,0.0016 c 1.465803,1.444863 3.278751,2.191597 5.331974,2.191597 1.350724,0 2.633903,-0.354693 3.812169,-1.049031 0.65368,-0.385204 1.20295,-0.871146 1.682068,-1.417484 v 2.140437 h 2.003496 v -14.34384 h -0.529167 -1.474329 v 2.058789 c -0.448594,-0.50065 -0.988177,-0.940342 -1.623156,-1.306896 -1.214929,-0.7122 -2.5176,-1.077971 -3.871081,-1.077971 z m 24.537003,0.02894 c -2.146353,0 -4.010954,0.752729 -5.480285,2.221055 -1.464347,1.443427 -2.22467,3.218852 -2.22467,5.218803 0,1.999943 0.757955,3.798253 2.216917,5.2989 l 0.0016,0.0036 0.0041,0.0021 c 1.481006,1.481008 3.273325,2.252059 5.27513,2.252059 h 0.265616 c 2.124302,0 3.987276,-0.84913 5.468919,-2.476852 l 0.13849,-0.151926 v -3.441652 l -0.968414,1.43557 c -0.566473,0.840574 -1.279449,1.509282 -2.156458,2.021584 -5.29e-4,2.64e-4 -0.0016,-2.65e-4 -0.0021,0 -7.94e-4,5.29e-4 -0.0011,0.0016 -0.0021,0.0021 -0.839933,0.481651 -1.79224,0.72657 -2.89233,0.726573 -0.876038,0 -1.830011,-0.403609 -2.841685,-1.101744 l 9.153961,-9.037174 -0.337447,-0.376722 C 80.126826,48.166686 78.21383,47.27572 76.045956,47.27572 Z m -24.508065,1.855703 h 5.29e-4 c 1.523029,1.21e-4 2.777535,0.538583 3.872632,1.670182 v 0.0016 l 0.0021,0.0021 c 1.115935,1.134229 1.648478,2.422197 1.648478,3.96875 0,1.525955 -0.523248,2.806054 -1.619022,3.93981 -1.093439,1.11166 -2.357602,1.642276 -3.904155,1.642276 -1.523868,0 -2.801265,-0.531717 -3.935677,-1.646409 -1.11469,-1.134412 -1.646412,-2.411809 -1.646412,-3.935677 0,-1.525363 0.531545,-2.804051 1.648478,-3.939294 1.136476,-1.154806 2.412159,-1.703131 3.933092,-1.703255 z m 24.242447,0.031 c 1.254514,0 2.33739,0.428014 3.345535,1.158587 l -7.650181,7.599537 c -0.711716,-0.975635 -1.130679,-2.040504 -1.130679,-3.294891 0,-1.440222 0.527476,-2.668431 1.64641,-3.787364 1.140944,-1.140945 2.372312,-1.675869 3.788915,-1.675869 z" />
    </g>
  </g>
</svg>
