<?xml version="1.0" encoding="UTF-8" standalone="no"?>
<!-- Created with Inkscape (http://www.inkscape.org/) -->

<svg
   width="61.335999mm"
   height="50.266998mm"
   viewBox="0 0 61.335999 50.266998"
   version="1.1"
   id="svg9284"
   inkscape:version="1.1.1 (3bf5ae0d25, 2021-09-20)"
   sodipodi:docname="Logo_Luis_Auxiliar_Completa.svg"
   xmlns:inkscape="http://www.inkscape.org/namespaces/inkscape"
   xmlns:sodipodi="http://sodipodi.sourceforge.net/DTD/sodipodi-0.dtd"
   xmlns="http://www.w3.org/2000/svg"
   xmlns:svg="http://www.w3.org/2000/svg">
  <sodipodi:namedview
     id="namedview9286"
     pagecolor="#505050"
     bordercolor="#ffffff"
     borderopacity="1"
     inkscape:pageshadow="0"
     inkscape:pageopacity="0"
     inkscape:pagecheckerboard="1"
     inkscape:document-units="mm"
     showgrid="false"
     width="61.336mm"
     inkscape:zoom="0.16"
     inkscape:cx="1106.25"
     inkscape:cy="-309.375"
     inkscape:window-width="1366"
     inkscape:window-height="705"
     inkscape:window-x="-8"
     inkscape:window-y="-8"
     inkscape:window-maximized="1"
     inkscape:current-layer="layer1"
     inkscape:lockguides="true" />
  <defs
     id="defs9281" />
  <g
     inkscape:label="Logo_Auxiliar_Completa"
     inkscape:groupmode="layer"
     id="layer1">
    <path
       id="rect1347"
       style="color:#fAf5ff;fill:#fAf5ff;fill-opacity:1;stroke-width:3.77953;stroke-linejoin:bevel;-inkscape-stroke:none"
       d="M 45.767578 0 L 40.320312 4.6328125 L 40.320312 11 L 44.353516 14.466797 L 55.742188 14.466797 L 57.404297 15.882812 L 57.404297 18.322266 L 54.328125 20.939453 L 47.041016 20.939453 L 44.070312 18.357422 L 44.070312 16.802734 L 40.320312 16.802734 L 40.320312 20.056641 L 45.662109 24.759766 L 55.707031 24.759766 L 61.154297 20.126953 L 61.154297 14.113281 L 57.085938 10.646484 L 45.732422 10.646484 L 44.070312 9.1972656 L 44.070312 6.3671875 L 47.111328 3.7851562 L 54.398438 3.7851562 L 57.404297 6.3671875 L 57.404297 8.4902344 L 61.154297 8.4902344 L 61.154297 4.6699219 L 55.8125 0 L 45.767578 0 z M 90.443359 0 L 87.082031 4.7402344 L 87.082031 7.8535156 L 83.474609 7.8535156 L 83.474609 11.636719 L 87.082031 11.636719 L 87.082031 24.759766 L 90.689453 24.759766 L 90.689453 11.636719 L 94.439453 11.636719 L 94.439453 7.8535156 L 90.689453 7.8535156 L 90.689453 6.0488281 L 92.210938 3.75 L 94.439453 3.75 L 94.439453 0 L 90.443359 0 z M 100.52344 0.03515625 L 100.52344 7.8535156 L 96.916016 7.8535156 L 96.916016 11.601562 L 100.52344 11.601562 L 100.52344 24.759766 L 104.13086 24.759766 L 104.13086 11.601562 L 107.88086 11.601562 L 107.88086 7.8535156 L 104.13086 7.8535156 L 104.13086 0.03515625 L 100.52344 0.03515625 z M 15.121094 7.3730469 L 7.5605469 14.931641 L 0 22.488281 L 0 163.60352 L 7.5585938 171.16211 L 15.119141 178.7207 L 53.634766 178.7207 L 53.634766 168.63867 L 19.298828 168.63867 L 14.691406 164.03125 L 10.083984 159.47266 L 10.083984 26.667969 L 14.691406 22.060547 L 19.294922 17.457031 L 30.244141 17.457031 L 30.244141 7.3730469 L 15.121094 7.3730469 z M 201.57812 7.3730469 L 201.57812 17.457031 L 212.52539 17.457031 L 217.13086 22.060547 L 221.73828 26.667969 L 221.73828 159.42578 L 217.13086 164.0332 L 212.52539 168.63867 L 178.18555 168.63867 L 178.18555 178.7207 L 216.69922 178.7207 L 224.25977 171.16406 L 231.82031 163.60742 L 231.82031 22.488281 L 224.25977 14.931641 L 216.69922 7.3730469 L 201.57812 7.3730469 z M 110.71094 7.8535156 L 110.71094 18.111328 L 115.20312 24.759766 L 121.71094 24.759766 L 123.12695 19.703125 L 124.50586 24.759766 L 131.01562 24.759766 L 135.50781 18.111328 L 135.50781 7.8535156 L 131.75781 7.8535156 L 131.75781 17.048828 L 128.99805 21.046875 L 126.69922 21.046875 L 124.71875 12.097656 L 121.57031 12.097656 L 119.51953 21.046875 L 117.21875 21.046875 L 114.53125 17.048828 L 114.53125 7.8535156 L 110.71094 7.8535156 z M 161.68164 7.8535156 L 158.67578 10.152344 L 158.67578 24.759766 L 162.35352 24.759766 L 162.35352 12.626953 L 163.73438 11.566406 L 167.48438 11.566406 L 169.60547 13.123047 L 171.72852 10.152344 L 168.7207 7.8535156 L 161.68164 7.8535156 z M 143.12891 7.8867188 C 141.80834 8.8535672 140.48854 9.8202613 139.16797 10.787109 L 139.16797 24.724609 L 142.88086 24.724609 L 142.88086 18.179688 L 151.30078 18.179688 L 151.30078 24.759766 L 155.01367 24.759766 L 155.01367 10.787109 L 151.05273 7.8867188 L 143.12891 7.8867188 z M 67.945312 7.8886719 L 63.984375 10.789062 L 63.984375 21.894531 L 67.945312 24.832031 L 76.611328 24.832031 L 80.539062 21.894531 L 80.539062 10.789062 L 76.611328 7.8886719 L 67.945312 7.8886719 z M 178.625 7.8886719 L 174.66406 10.789062 L 174.66406 21.824219 L 178.625 24.759766 L 187.85742 24.759766 L 191.46484 21.859375 L 189.02539 18.958984 L 186.54883 21.046875 L 179.86328 21.046875 L 178.37891 19.949219 L 178.37891 17.650391 L 191.50195 17.650391 L 191.50195 10.859375 L 187.85742 7.8886719 L 178.625 7.8886719 z M 69.183594 11.566406 L 75.337891 11.566406 L 76.824219 12.699219 L 76.824219 19.986328 L 75.337891 21.117188 L 69.183594 21.117188 L 67.699219 19.986328 L 67.699219 12.699219 L 69.183594 11.566406 z M 144.36719 11.566406 L 149.81445 11.566406 L 151.30078 12.697266 L 151.30078 14.466797 L 142.88086 14.466797 L 142.88086 12.697266 L 144.36719 11.566406 z M 179.86328 11.566406 L 186.54883 11.566406 L 187.78711 12.591797 L 187.78711 14.113281 L 178.37891 14.113281 L 178.37891 12.699219 L 179.86328 11.566406 z M 55.4375 47.693359 L 40.320312 62.8125 L 50.396484 72.888672 L 50.396484 113.20703 L 65.513672 128.32617 L 105.83398 128.32617 L 115.91016 138.40234 L 131.0293 123.28516 L 120.95312 113.20898 L 120.95312 77.066406 L 130.16602 67.853516 L 166.30664 67.853516 L 176.38281 77.929688 L 191.50195 62.8125 L 176.38281 47.693359 L 166.30859 57.769531 L 125.98633 57.769531 L 110.86914 72.888672 L 110.86914 113.20898 L 105.83594 118.24219 L 69.693359 118.24219 L 60.480469 109.0293 L 60.480469 72.886719 L 70.556641 62.8125 L 55.4375 47.693359 z M 146.14648 77.929688 L 131.0293 93.048828 L 146.14648 108.16602 L 161.26562 93.048828 L 146.14648 77.929688 z M 63.71875 157.37305 L 63.71875 182.13477 L 81.193359 182.13477 L 84.765625 177.35938 L 84.765625 162.14844 L 81.193359 157.37305 L 63.71875 157.37305 z M 125.44336 159.56641 L 125.44336 163.35156 L 128.69727 163.35156 L 128.69727 159.56641 L 125.44336 159.56641 z M 67.46875 161.1582 L 79.283203 161.1582 L 80.980469 163.45703 L 80.980469 176.05078 L 79.283203 178.31445 L 67.46875 178.31445 L 67.46875 161.1582 z M 125.4082 165.22656 L 125.4082 182.13477 L 128.62695 182.13477 L 128.62695 165.22656 L 125.4082 165.22656 z M 91.556641 165.26172 L 87.595703 168.16211 L 87.595703 179.19922 L 91.556641 182.13477 L 100.78906 182.13477 L 104.39648 179.23438 L 101.95703 176.33398 L 99.480469 178.41992 L 92.794922 178.41992 L 91.308594 177.32422 L 91.308594 175.02539 L 104.43164 175.02539 L 104.43164 168.23242 L 100.78906 165.26172 L 91.556641 165.26172 z M 135.52539 165.26172 L 131.88086 168.30469 L 131.88086 179.05664 L 135.52539 182.13477 L 143.83789 182.13477 L 145.00391 181.25 L 145.00391 185.07031 L 143.51953 186.23828 L 138.17773 186.23828 L 135.63086 184.08008 L 133.29688 186.98047 L 136.9043 189.98633 L 144.7207 189.98633 L 148.71875 186.98047 L 148.71875 168.30469 L 145.07422 165.26172 L 135.52539 165.26172 z M 156.2168 165.26172 C 154.89623 166.22856 153.57642 167.19526 152.25586 168.16211 L 152.25586 182.09961 L 155.9707 182.09961 L 155.9707 170.07227 L 157.45508 168.94141 L 162.90234 168.94141 L 164.38867 170.07227 L 164.38867 182.13477 L 168.10156 182.13477 L 168.10156 168.16211 L 164.14062 165.26172 L 156.2168 165.26172 z M 110.62305 165.29688 L 107.26172 168.30469 L 107.26172 172.40625 L 110.62305 175.44922 L 117.37891 175.44922 L 118.61719 176.61719 L 118.61719 177.5 L 117.44922 178.52734 L 107.50977 178.52734 L 107.50977 182.13477 L 118.72266 182.13477 L 122.22461 179.19922 L 122.22461 175.02539 L 118.79297 171.8418 L 111.9668 171.8418 L 110.87109 170.81445 L 110.87109 169.89648 L 111.9668 168.9043 L 121.48242 168.9043 L 121.48242 165.29688 L 110.62305 165.29688 z M 92.794922 168.94141 L 99.480469 168.94141 L 100.71875 169.9668 L 100.71875 171.48828 L 91.308594 171.48828 L 91.308594 170.07227 L 92.794922 168.94141 z M 136.86914 169.01172 L 143.51953 169.01172 L 145.00391 170.07227 L 145.00391 177.18164 L 143.51953 178.31445 L 136.86914 178.31445 L 135.5957 177.25391 L 135.5957 170.07227 L 136.86914 169.01172 z "
       transform="scale(0.26458333)" />
  </g>
</svg>
