<?xml version="1.0" encoding="UTF-8" standalone="no"?>
<!-- Created with Inkscape (http://www.inkscape.org/) -->

<svg
   width="82.002998mm"
   height="24mm"
   viewBox="0 0 82.002996 24"
   version="1.1"
   id="svg5"
   inkscape:version="1.1.1 (3bf5ae0d25, 2021-09-20)"
   sodipodi:docname="Logo_Auxiliar_Completa.svg"
   xmlns:inkscape="http://www.inkscape.org/namespaces/inkscape"
   xmlns:sodipodi="http://sodipodi.sourceforge.net/DTD/sodipodi-0.dtd"
   xmlns="http://www.w3.org/2000/svg"
   xmlns:svg="http://www.w3.org/2000/svg">
  <sodipodi:namedview
     id="namedview7"
     pagecolor="#505050"
     bordercolor="#ffffff"
     borderopacity="1"
     inkscape:pageshadow="0"
     inkscape:pageopacity="0"
     inkscape:pagecheckerboard="1"
     inkscape:document-units="mm"
     showgrid="false"
     inkscape:snap-bbox="true"
     inkscape:bbox-paths="true"
     inkscape:bbox-nodes="true"
     inkscape:snap-bbox-edge-midpoints="true"
     inkscape:snap-bbox-midpoints="true"
     inkscape:object-paths="true"
     inkscape:object-nodes="true"
     inkscape:snap-smooth-nodes="true"
     inkscape:snap-intersection-paths="true"
     inkscape:snap-midpoints="true"
     inkscape:snap-page="true"
     width="82.003mm"
     showguides="true"
     inkscape:guide-bbox="true"
     inkscape:zoom="0.70710678"
     inkscape:cx="35.355339"
     inkscape:cy="92.630988"
     inkscape:window-width="1366"
     inkscape:window-height="705"
     inkscape:window-x="-8"
     inkscape:window-y="-8"
     inkscape:window-maximized="1"
     inkscape:current-layer="layer2"
     inkscape:snap-global="true"
     inkscape:snap-nodes="true">
    <inkscape:grid
       type="xygrid"
       id="grid50699" />
  </sodipodi:namedview>
  <defs
     id="defs2" />
  <g
     inkscape:groupmode="layer"
     id="layer2"
     inkscape:label="Logo_Auxiliar_Completa_Uma_Cor"
     style="display:inline">
    <path
       id="path91675"
       style="color:#ffffff;font-weight:bold;font-size:134.924px;font-family:'Poiret One';-inkscape-font-specification:'Poiret One Bold';fill:#ffffff;fill-opacity:1;stroke:none;stroke-width:3.175;stroke-miterlimit:4;stroke-dasharray:none"
       d="m 35.68206,0 c -3.275275,0 -6.141945,1.1995348 -8.49199,3.5486205 -2.351008,2.3305693 -3.550687,5.1783315 -3.550687,8.4356605 0,2.077149 0.528322,4.054987 1.574064,5.900415 l 0.0021,0.0041 0.0021,0.0036 c 1.066387,1.825163 2.520897,3.300346 4.343921,4.40645 1.829271,1.109895 3.82493,1.671732 5.944856,1.671732 h 0.324528 c 2.198499,0 4.253055,-0.581373 6.123141,-1.732194 l 0.251663,-0.154512 v -2.388485 l -0.825791,0.56224 c -1.771642,1.206226 -3.65534,1.798856 -5.697325,1.798856 -2.766354,0 -5.084755,-0.975709 -7.064685,-2.974495 -1.980747,-1.999612 -2.947106,-4.330204 -2.947106,-7.097758 0,-2.7880888 0.966123,-5.1167745 2.94504,-7.0956909 h 0.0021 v -0.00206 c 1.97993,-1.9987852 4.298331,-2.9724283 7.064685,-2.9724283 2.041985,0 3.925684,0.5926317 5.697326,1.7988565 l 0.825791,0.5622396 v -2.39624 L 41.94421,1.7244425 C 39.980637,0.57902519 37.880559,0 35.68206,0 Z m 42.882653,2.8411701 c -0.559369,0 -1.059085,0.1431817 -1.423686,0.513147 -0.364601,0.3699655 -0.52555,0.9223385 -0.52555,1.5146364 0,0.5922978 0.160949,1.1462212 0.52555,1.5161863 0.364601,0.3699655 0.864317,0.5131472 1.423686,0.5131472 0.57141,0 1.080727,-0.139345 1.453657,-0.5069459 0.372931,-0.367601 0.540536,-0.9270886 0.540536,-1.5223876 0,-0.595299 -0.167605,-1.1532365 -0.540536,-1.5208375 C 79.64544,2.9805148 79.136123,2.8411701 78.564713,2.8411701 Z m -11.49594,1.0867554 c -1.514901,0 -2.86136,0.5311691 -3.935161,1.5601117 -7.94e-4,6.35e-4 -0.0011,0.00143 -0.0021,0.00206 -7.93e-4,6.35e-4 -0.0011,0.00143 -0.0021,0.00206 -1.082479,1.0196464 -1.63866,2.3794399 -1.63866,3.9532472 V 23.646612 h 2.004012 v -5.080304 h 4.132564 V 16.681669 H 63.494832 V 9.4454182 c 0,-1.0850583 0.332999,-1.9153367 1.02526,-2.6075928 0.71645,-0.6966428 1.531221,-1.0252604 2.548681,-1.0252604 h 0.529683 V 3.9279255 Z M 51.508482,8.9767128 c -2.054079,0 -3.867139,0.7546049 -5.331973,2.2184692 -1.466168,1.445221 -2.22467,3.241078 -2.22467,5.277714 0,2.036636 0.758307,3.84029 2.222603,5.304586 l 0.0021,0.0021 v 0.0016 c 1.465805,1.444863 3.278754,2.18953 5.331973,2.18953 1.350722,0 2.63442,-0.352629 3.812688,-1.046965 0.65363,-0.385174 1.202463,-0.871198 1.681552,-1.417484 v 2.140438 h 2.004012 V 9.3007242 H 58.477099 57.002772 V 11.36158 c -0.449141,-0.501275 -0.989163,-0.942104 -1.625224,-1.308964 l -0.0021,-0.0021 C 54.16115,9.339282 52.861114,8.9767163 51.508482,8.9767163 Z m 24.537006,0.028939 c -2.146351,0 -4.010957,0.7506608 -5.480288,2.2189862 -1.464347,1.443428 -2.22467,3.218855 -2.22467,5.218803 0,1.999947 0.75796,3.799802 2.21692,5.300451 l 0.0021,0.0021 0.0036,0.0021 c 1.480871,1.480911 3.273838,2.252058 5.275649,2.252058 h 0.265615 c 2.124311,0 3.98676,-0.84913 5.468401,-2.476851 l 0.139009,-0.150378 v -3.443194 l -0.968933,1.437638 c -0.56647,0.840572 -1.279448,1.50928 -2.156457,2.021582 -5.3e-4,3.18e-4 -0.0011,-3.17e-4 -0.0021,0 -7.94e-4,4.76e-4 -5.29e-4,0.0011 -0.0016,0.0016 -0.83993,0.481648 -1.792755,0.725021 -2.892845,0.725021 -0.876041,0 -1.830009,-0.403607 -2.841689,-1.101742 l 9.15448,-9.037174 -0.340032,-0.375171 C 80.124347,9.8965799 78.213338,9.0056625 76.045459,9.0056625 Z m -24.50755,1.8557002 c 1.523262,0 2.775863,0.537939 3.871082,1.669666 h 0.0021 l 0.0016,0.0021 c 1.11593,1.134228 1.648468,2.422195 1.648478,3.96875 -10e-6,1.526519 -0.522411,2.807293 -1.619022,3.941361 -5.29e-4,4.23e-4 -0.0021,-3.97e-4 -0.0021,0 -5.29e-4,4.23e-4 5.3e-4,0.0016 0,0.0021 -1.092959,1.110237 -2.356508,1.640726 -3.902088,1.640726 -1.524809,0 -2.80281,-0.534448 -3.937743,-1.650545 -2.65e-4,-2.91e-4 -0.0019,2.91e-4 -0.0021,0 -1.111885,-1.133369 -1.642277,-2.411619 -1.642277,-3.93361 0,-1.525363 0.531546,-2.804051 1.648479,-3.939294 1.1366,-1.154937 2.41245,-1.701189 3.933608,-1.701189 z m 24.239865,0.02946 c 1.25461,0 2.339388,0.429448 3.347599,1.160136 l -7.650179,7.597469 c -0.711721,-0.975633 -1.130681,-2.038436 -1.130681,-3.292822 0,-1.440223 0.527482,-2.670497 1.646413,-3.789433 1.140949,-1.140944 2.370238,-1.67535 3.786848,-1.67535 z M 5.935038,11.999784 c -1.7014296,0 -3.2250988,0.425314 -4.3341025,1.519287 C 0.49193185,14.613043 0,16.247503 0,17.998901 c 0,1.751398 0.49193185,3.387924 1.6009355,4.481897 1.1090037,1.093972 2.6326756,1.519287 4.3341025,1.519287 1.7380267,0 3.2803914,-0.415775 4.414718,-1.50275 1.134325,-1.086986 1.650029,-2.738157 1.650029,-4.498434 0,-1.760268 -0.515704,-3.408874 -1.650029,-4.495849 C 9.2154294,12.416066 7.6730647,11.999784 5.935038,11.999784 Z" />
  </g>
</svg>
