<?xml version="1.0" encoding="UTF-8" standalone="no"?>
<!-- Created with Inkscape (http://www.inkscape.org/) -->

<svg
   width="132.77mm"
   height="24mm"
   viewBox="0 0 132.77 24"
   version="1.1"
   id="svg5"
   inkscape:version="1.1.1 (3bf5ae0d25, 2021-09-20)"
   sodipodi:docname="Logo_Completa_Uma_Cor.svg"
   xmlns:inkscape="http://www.inkscape.org/namespaces/inkscape"
   xmlns:sodipodi="http://sodipodi.sourceforge.net/DTD/sodipodi-0.dtd"
   xmlns="http://www.w3.org/2000/svg"
   xmlns:svg="http://www.w3.org/2000/svg">
  <sodipodi:namedview
     id="namedview7"
     pagecolor="#505050"
     bordercolor="#FFFAF5"
     borderopacity="1"
     inkscape:pageshadow="0"
     inkscape:pageopacity="0"
     inkscape:pagecheckerboard="1"
     inkscape:document-units="mm"
     showgrid="false"
     inkscape:snap-bbox="true"
     inkscape:bbox-paths="true"
     inkscape:bbox-nodes="true"
     inkscape:snap-bbox-edge-midpoints="true"
     inkscape:snap-bbox-midpoints="true"
     inkscape:object-paths="true"
     inkscape:object-nodes="true"
     inkscape:snap-smooth-nodes="true"
     inkscape:snap-intersection-paths="true"
     inkscape:snap-midpoints="true"
     inkscape:snap-page="true"
     width="132.77mm"
     showguides="true"
     inkscape:guide-bbox="true"
     inkscape:zoom="2"
     inkscape:cx="394.5"
     inkscape:cy="48.75"
     inkscape:window-width="1366"
     inkscape:window-height="705"
     inkscape:window-x="-8"
     inkscape:window-y="-8"
     inkscape:window-maximized="1"
     inkscape:current-layer="layer2"
     inkscape:snap-global="true"
     inkscape:snap-nodes="true"
     inkscape:lockguides="true">
    <inkscape:grid
       type="xygrid"
       id="grid50699" />
  </sodipodi:namedview>
  <defs
     id="defs2" />
  <g
     inkscape:groupmode="layer"
     id="layer2"
     inkscape:label="Logo_Completa_Uma_Cor"
     style="display:inline">
    <path
       id="path1111"
       style="color:#FFFAF5;font-weight:bold;font-size:29.526px;font-family:'Poiret One';-inkscape-font-specification:'Poiret One Bold';fill:#FFFAF5;stroke:none;stroke-width:3.99999;-inkscape-stroke:none;fill-opacity:1"
       d="M 326.73633 0 C 314.35734 0 303.52268 4.5336755 294.64062 13.412109 C 285.75493 22.22056 281.2207 32.983756 281.2207 45.294922 C 281.2207 53.145564 283.21751 60.620857 287.16992 67.595703 L 287.17773 67.611328 L 287.18555 67.625 C 291.21599 74.523254 296.71921 80.098746 303.60938 84.279297 C 310.52314 88.474176 318.05995 90.597656 326.07227 90.597656 L 327.29883 90.597656 C 335.60812 90.597656 343.37337 88.400341 350.44141 84.050781 L 351.39258 83.466797 L 351.39258 74.439453 L 348.27148 76.564453 C 341.57551 81.123418 334.45602 83.363281 326.73828 83.363281 C 316.28277 83.363281 307.52031 79.675561 300.03711 72.121094 C 292.55082 64.563505 288.89844 55.754968 288.89844 45.294922 C 288.89844 34.757263 292.54993 25.955931 300.0293 18.476562 L 300.03711 18.476562 L 300.03711 18.46875 C 307.52031 10.914286 316.28277 7.234375 326.73828 7.234375 C 334.45602 7.234375 341.57551 9.4742429 348.27148 14.033203 L 351.39258 16.158203 L 351.39258 7.1015625 L 350.4043 6.5175781 C 342.98292 2.1884418 335.04562 3.5527137e-15 326.73633 0 z M 0 1.6757812 L 0 3.6757812 L 0 89.373047 L 7.6835938 89.373047 L 7.6835938 58.685547 C 14.52246 58.399471 20.894645 55.755036 26.457031 50.566406 L 26.464844 50.558594 C 32.452282 45.040279 35.580078 38.192308 35.580078 30.457031 C 35.580078 22.742382 32.591986 15.881328 26.839844 10.283203 C 21.070868 4.5934207 13.882329 1.6757814 5.6835938 1.6757812 L 0 1.6757812 z M 7.6835938 9.1308594 C 12.774979 9.4031792 17.271149 11.282868 21.341797 15.353516 L 21.347656 15.361328 L 21.355469 15.369141 C 25.796358 19.740641 27.896484 24.635318 27.896484 30.457031 C 27.896484 36.286589 25.828082 41.143489 21.466797 45.435547 L 21.458984 45.443359 L 21.451172 45.451172 C 17.455496 49.446518 12.923699 51.298394 7.6835938 51.5625 L 7.6835938 9.1308594 z M 488.82031 10.738281 C 486.70612 10.738281 484.80966 11.27944 483.43164 12.677734 C 482.05362 14.076029 481.44531 16.163738 481.44531 18.402344 C 481.44531 20.64095 482.05362 22.73452 483.43164 24.132812 C 484.80966 25.531107 486.70612 26.072266 488.82031 26.072266 C 490.97997 26.072266 492.89714 25.545608 494.30664 24.15625 C 495.71614 22.766892 496.34961 20.652293 496.34961 18.402344 C 496.34961 16.152395 495.71614 14.043655 494.30664 12.654297 C 492.89714 11.264938 490.97997 10.738281 488.82031 10.738281 z M 445.36328 14.845703 C 439.63767 14.845703 434.54869 16.853271 430.49023 20.742188 C 430.48766 20.744618 430.4862 20.747581 430.48242 20.75 C 430.47985 20.752447 430.47839 20.755396 430.47461 20.757812 C 426.38335 24.611594 424.28125 29.750971 424.28125 35.699219 L 424.28125 89.373047 L 431.85547 89.373047 L 431.85547 70.171875 L 447.47461 70.171875 L 447.47461 63.048828 L 431.85547 63.048828 L 431.85547 35.699219 C 431.85547 31.606198 433.10882 28.472715 435.71484 25.859375 L 435.72266 25.851562 C 435.72519 25.849016 435.72669 25.846282 435.73047 25.84375 C 438.43948 23.207602 441.51557 21.96875 445.36328 21.96875 L 447.36523 21.96875 L 447.36523 14.845703 L 445.36328 14.845703 z M 154.89453 14.955078 L 154.89453 69.183594 C 154.89453 75.139358 156.99768 80.307775 161.08789 84.234375 L 161.0957 84.242188 L 161.10352 84.25 C 165.16755 88.070188 170.25312 90.037109 175.97656 90.037109 L 177.97852 90.037109 L 177.97852 82.914062 L 175.97656 82.914062 C 172.12731 82.914062 169.04571 81.661682 166.33594 79.023438 C 163.72783 76.409482 162.46094 73.278217 162.46094 69.183594 L 162.46094 42.386719 L 177.86719 42.386719 L 177.86719 35.263672 L 162.46094 35.263672 L 162.46094 14.955078 L 154.89453 14.955078 z M 62.369141 33.927734 C 54.607817 33.927734 47.7602 36.782756 42.224609 42.3125 C 36.690071 47.767972 33.816406 54.478251 33.816406 62.037109 C 33.816406 69.588953 36.632949 76.382867 42.070312 82.056641 L 42.076172 82.064453 C 47.532585 87.679024 54.29265 90.597656 61.927734 90.597656 L 62.931641 90.597656 C 70.636037 90.597656 77.399589 87.681848 82.787109 82.056641 C 88.154258 76.452709 90.929688 69.693261 90.929688 62.148438 C 90.929688 54.525935 88.059245 47.784863 82.529297 42.328125 C 77.062052 36.787666 70.199989 33.927734 62.369141 33.927734 z M 122.52539 33.927734 C 114.98514 33.927734 109.39143 37.266985 105.10352 42.261719 L 105.10352 35.152344 L 97.537109 35.152344 L 97.537109 89.373047 L 105.10352 89.373047 L 105.10352 87.371094 L 105.10352 58.132812 C 105.10352 53.508899 106.75735 49.655998 110.29297 46.181641 L 110.30078 46.173828 C 110.30346 46.171198 110.30557 46.168661 110.30859 46.166016 C 113.93471 42.683143 117.89168 41.050781 122.52539 41.050781 C 127.16597 41.050781 130.87788 42.669318 134.12109 46.115234 L 134.12891 46.121094 L 134.13672 46.128906 C 137.46993 49.598169 139.04687 53.47291 139.04688 58.132812 L 139.04688 89.373047 L 146.61914 89.373047 L 146.61914 58.132812 C 146.61914 51.500106 144.25652 45.647328 139.68164 40.992188 C 135.09609 36.326908 129.23498 33.927734 122.52539 33.927734 z M 208.67188 33.927734 C 200.90843 33.927734 194.05591 36.779784 188.51953 42.3125 C 182.985 47.767972 180.11133 54.478251 180.11133 62.037109 C 180.11133 69.588953 182.93373 76.382867 188.37109 82.056641 L 188.37109 82.064453 L 188.37891 82.064453 C 193.83532 87.679024 200.59343 90.597656 208.22852 90.597656 L 209.23242 90.597656 C 216.93682 90.597656 223.70232 87.681848 229.08984 82.056641 C 234.45699 76.452709 237.23242 69.693261 237.23242 62.148438 C 237.23242 54.525935 234.36198 47.784863 228.83203 42.328125 C 223.36478 36.787666 216.5027 33.927734 208.67188 33.927734 z M 386.55273 33.927734 C 378.78928 33.927734 371.93677 36.779784 366.40039 42.3125 C 360.85897 47.774753 357.99219 54.562244 357.99219 62.259766 C 357.99219 69.957288 360.85823 76.774247 366.39258 82.308594 L 366.40039 82.316406 L 366.40039 82.322266 C 371.94043 87.783165 378.79253 90.597656 386.55273 90.597656 C 391.65782 90.597656 396.50959 89.264887 400.96289 86.640625 C 403.4333 85.184849 405.50763 83.347906 407.31836 81.283203 L 407.31836 89.373047 L 414.89258 89.373047 L 414.89258 35.152344 L 412.89062 35.152344 L 407.31836 35.152344 L 407.31836 42.941406 C 405.62082 41.046824 403.57979 39.380698 401.17578 37.994141 L 401.16797 37.986328 C 396.57856 35.298061 391.66504 33.927734 386.55273 33.927734 z M 479.29102 34.037109 C 471.17883 34.037109 464.1315 36.874252 458.57812 42.423828 C 453.04359 47.879304 450.16992 54.589579 450.16992 62.148438 C 450.16992 69.707294 453.03465 76.509896 458.54883 82.181641 L 458.55664 82.189453 L 458.57031 82.197266 C 464.1673 87.79441 470.94391 90.708984 478.50977 90.708984 L 479.51367 90.708984 C 487.54252 90.708984 494.58174 87.499669 500.18164 81.347656 L 500.70703 80.779297 L 500.70703 67.765625 L 497.04492 73.199219 C 494.9039 76.376191 492.20918 78.903584 488.89453 80.839844 C 488.89249 80.841 488.8905 80.838687 488.88672 80.839844 C 488.88362 80.84165 488.88464 80.843813 488.88086 80.845703 C 485.70628 82.666109 482.10509 83.585938 477.94727 83.585938 C 474.63629 83.585938 471.0307 82.060495 467.20703 79.421875 L 501.80664 45.265625 L 500.5293 43.847656 C 494.7151 37.404359 487.48454 34.037109 479.29102 34.037109 z M 62.488281 41.050781 C 68.245496 41.050781 72.979726 43.083935 77.119141 47.361328 L 77.126953 47.361328 L 77.126953 47.369141 C 81.34466 51.65599 83.363281 56.523897 83.363281 62.369141 C 83.363281 68.138665 81.380973 72.979384 77.236328 77.265625 C 77.234801 77.267178 77.230405 77.264075 77.228516 77.265625 C 77.226981 77.267212 77.230046 77.271548 77.228516 77.273438 C 73.097621 81.469611 68.329862 83.474613 62.488281 83.474609 C 56.730216 83.474609 51.892213 81.462815 47.605469 77.251953 C 43.394606 72.965213 41.382812 68.127202 41.382812 62.369141 C 41.382812 56.603989 43.399618 51.771151 47.621094 47.480469 C 51.916924 43.115353 56.739004 41.050781 62.488281 41.050781 z M 208.78125 41.050781 C 214.53846 41.050781 219.28051 43.083935 223.41992 47.361328 L 223.42773 47.369141 C 227.64544 51.65599 229.6582 56.523897 229.6582 62.369141 C 229.6582 68.138665 227.68371 72.979384 223.53906 77.265625 C 223.53754 77.267178 223.53314 77.264075 223.53125 77.265625 C 223.52972 77.267212 223.53278 77.271548 223.53125 77.273438 C 219.40036 81.469611 214.62283 83.474609 208.78125 83.474609 C 203.01821 83.474609 198.1899 81.454647 193.90039 77.236328 C 193.89934 77.235259 193.89371 77.237398 193.89258 77.236328 C 189.69018 72.952729 187.68359 68.121548 187.68359 62.369141 C 187.68359 56.603989 189.69258 51.771151 193.91406 47.480469 C 198.20989 43.115353 203.03197 41.050781 208.78125 41.050781 z M 386.66406 41.050781 C 392.42127 41.050781 397.15551 43.083935 401.29492 47.361328 L 401.30273 47.361328 L 401.30859 47.369141 C 405.52628 51.65599 407.53906 56.523897 407.53906 62.369141 C 407.53902 68.138665 405.56459 72.979384 401.41992 77.265625 C 401.41841 77.267178 401.41211 77.264075 401.41211 77.265625 C 401.4106 77.267212 401.41366 77.271548 401.41211 77.273438 C 397.28124 81.469611 392.50562 83.474609 386.66406 83.474609 C 380.90104 83.474609 376.07076 81.454647 371.78125 77.236328 C 371.7802 77.235259 371.77457 77.237398 371.77344 77.236328 C 367.57104 72.952729 365.56641 68.121548 365.56641 62.369141 C 365.56641 56.603989 367.5754 51.771151 371.79688 47.480469 C 376.09268 43.115353 380.9148 41.050781 386.66406 41.050781 z M 478.28711 41.162109 C 483.02894 41.162109 487.12108 42.78522 490.93164 45.546875 L 462.01758 74.261719 C 459.32761 70.574287 457.74414 66.557393 457.74414 61.816406 C 457.74414 56.373048 459.73773 51.72319 463.9668 47.494141 C 468.27905 43.181911 472.93299 41.162109 478.28711 41.162109 z "
       transform="scale(0.26458333)" />
  </g>
</svg>
