<?xml version="1.0" encoding="UTF-8" standalone="no"?>
<!-- Created with Inkscape (http://www.inkscape.org/) -->

<svg
   width="132.77mm"
   height="24mm"
   viewBox="0 0 132.77 24"
   version="1.1"
   id="svg5"
   inkscape:version="1.1.1 (3bf5ae0d25, 2021-09-20)"
   sodipodi:docname="Logo_Completa_Colorida.svg"
   xmlns:inkscape="http://www.inkscape.org/namespaces/inkscape"
   xmlns:sodipodi="http://sodipodi.sourceforge.net/DTD/sodipodi-0.dtd"
   xmlns="http://www.w3.org/2000/svg"
   xmlns:svg="http://www.w3.org/2000/svg">
  <sodipodi:namedview
     id="namedview7"
     pagecolor="#505050"
     bordercolor="#ffffff"
     borderopacity="1"
     inkscape:pageshadow="0"
     inkscape:pageopacity="0"
     inkscape:pagecheckerboard="1"
     inkscape:document-units="mm"
     showgrid="false"
     inkscape:snap-bbox="true"
     inkscape:bbox-paths="true"
     inkscape:bbox-nodes="true"
     inkscape:snap-bbox-edge-midpoints="true"
     inkscape:snap-bbox-midpoints="true"
     inkscape:object-paths="true"
     inkscape:object-nodes="true"
     inkscape:snap-smooth-nodes="true"
     inkscape:snap-intersection-paths="true"
     inkscape:snap-midpoints="true"
     inkscape:snap-page="true"
     width="132.77mm"
     showguides="true"
     inkscape:guide-bbox="true"
     inkscape:zoom="0.35355339"
     inkscape:cx="164.04877"
     inkscape:cy="493.56053"
     inkscape:window-width="1366"
     inkscape:window-height="705"
     inkscape:window-x="-8"
     inkscape:window-y="-8"
     inkscape:window-maximized="1"
     inkscape:current-layer="layer2"
     inkscape:snap-global="true"
     inkscape:snap-nodes="true"
     inkscape:lockguides="true">
    <inkscape:grid
       type="xygrid"
       id="grid50699" />
  </sodipodi:namedview>
  <defs
     id="defs2" />
  <g
     inkscape:groupmode="layer"
     id="layer2"
     inkscape:label="Logo_Completa_Colorida"
     style="display:inline">
    <g
       id="g1322">
      <g
         id="g1021"
         style="fill:#804000;fill-opacity:1">
        <path
           id="path1141"
           style="color:#000000;font-weight:bold;font-size:29.526px;font-family:'Poiret One';-inkscape-font-specification:'Poiret One Bold';fill:#804000;fill-opacity:1;stroke:none;stroke-width:3.99999;-inkscape-stroke:none"
           d="m 326.73633,0 c -12.37899,0 -23.21365,4.533675 -32.09571,13.412109 -8.8857,8.808451 -13.41992,19.571647 -13.41992,31.882813 0,7.850642 1.99681,15.325935 5.94922,22.300781 l 0.008,0.01563 0.008,0.01367 c 4.03044,6.898254 9.53366,12.473746 16.42383,16.654297 6.91377,4.194879 14.45057,6.318359 22.46289,6.318359 h 1.22656 c 8.30929,0 16.07454,-2.197315 23.14258,-6.546875 l 0.95117,-0.583984 v -9.027344 l -3.1211,2.125 c -6.69597,4.558965 -13.81546,6.798828 -21.5332,6.798828 -10.45551,0 -19.21797,-3.68772 -26.70117,-11.242187 -7.48629,-7.557589 -11.13867,-16.366126 -11.13867,-26.826172 0,-10.537659 3.65149,-19.338991 11.13086,-26.81836 h 0.008 v -0.0078 c 7.4832,-7.554464 16.24566,-11.234375 26.70117,-11.234375 7.71774,0 14.83723,2.2398677 21.5332,6.798828 l 3.1211,2.125 V 7.1015625 L 350.4043,6.5175781 C 342.98292,2.1884417 335.04562,0 326.73633,0 Z"
           transform="scale(0.26458333)" />
        <path
           id="path1147"
           style="color:#000000;font-weight:bold;font-size:29.526px;font-family:'Poiret One';-inkscape-font-specification:'Poiret One Bold';fill:#804000;fill-opacity:1;stroke:none;stroke-width:3.99999;-inkscape-stroke:none"
           d="m 386.55273,33.927734 c -7.76345,0 -14.61596,2.85205 -20.15234,8.384766 -5.54142,5.462253 -8.4082,12.249744 -8.4082,19.947266 0,7.697522 2.86604,14.514481 8.40039,20.048828 l 0.008,0.0078 v 0.0059 c 5.54004,5.460899 12.39214,8.27539 20.15234,8.27539 5.10509,0 9.95686,-1.332769 14.41016,-3.957031 2.47041,-1.455776 4.54474,-3.292719 6.35547,-5.357422 v 8.089844 h 7.57422 V 35.152344 h -2.00196 -5.57226 v 7.789062 c -1.69754,-1.894582 -3.73857,-3.560708 -6.14258,-4.947265 l -0.008,-0.0078 c -4.58941,-2.688267 -9.50293,-4.058594 -14.61524,-4.058594 z m 0.11133,7.123047 c 5.75721,0 10.49145,2.033154 14.63086,6.310547 h 0.008 l 0.006,0.0078 c 4.21769,4.286849 6.23047,9.154756 6.23047,15 -4e-5,5.769524 -1.97447,10.610243 -6.11914,14.896484 -0.002,0.0016 -0.008,-0.0015 -0.008,0 -0.002,0.0016 0.002,0.0059 0,0.0078 -4.13087,4.196174 -8.90649,6.201171 -14.74805,6.201171 -5.76302,0 -10.5933,-2.019962 -14.88281,-6.238281 -10e-4,-0.0011 -0.007,0.0011 -0.008,0 -4.2024,-4.283599 -6.20703,-9.11478 -6.20703,-14.867187 0,-5.765152 2.00899,-10.59799 6.23047,-14.888672 4.29581,-4.365116 9.11792,-6.429688 14.86718,-6.429688 z"
           transform="scale(0.26458333)" />
        <path
           id="path1153"
           style="color:#000000;font-weight:bold;font-size:29.526px;font-family:'Poiret One';-inkscape-font-specification:'Poiret One Bold';fill:#804000;fill-opacity:1;stroke:none;stroke-width:3.99999;-inkscape-stroke:none"
           d="m 445.36328,14.845703 c -5.72561,0 -10.81459,2.007568 -14.87305,5.896485 -0.003,0.0024 -0.004,0.0054 -0.008,0.0078 -0.003,0.0024 -0.004,0.0054 -0.008,0.0078 -4.09126,3.853782 -6.19336,8.993159 -6.19336,14.941407 v 53.673828 h 7.57422 V 70.171875 h 15.61914 V 63.048828 H 431.85547 V 35.699219 c 0,-4.093021 1.25335,-7.226504 3.85937,-9.839844 l 0.008,-0.0078 c 0.003,-0.0025 0.004,-0.0053 0.008,-0.0078 2.70901,-2.636148 5.7851,-3.875 9.63281,-3.875 h 2.00195 v -7.123047 z"
           transform="scale(0.26458333)" />
        <path
           id="path1159"
           style="color:#000000;font-weight:bold;font-size:29.526px;font-family:'Poiret One';-inkscape-font-specification:'Poiret One Bold';fill:#804000;fill-opacity:1;stroke:none;stroke-width:3.99999;-inkscape-stroke:none"
           d="m 479.29102,34.037109 c -8.11219,0 -15.15952,2.837143 -20.7129,8.386719 -5.53454,5.455476 -8.4082,12.165751 -8.4082,19.72461 0,7.558857 2.86473,14.361458 8.37891,20.033203 l 0.008,0.0078 0.0137,0.0078 c 5.59699,5.597144 12.3736,8.511718 19.93946,8.511718 h 1.0039 c 8.02885,0 15.06807,-3.209315 20.66797,-9.361328 l 0.52539,-0.568359 V 67.765625 l -3.66211,5.433594 c -2.14102,3.176972 -4.83574,5.704365 -8.15039,7.640625 -0.002,0.0012 -0.004,-0.0012 -0.008,0 -0.003,0.0018 -0.002,0.004 -0.006,0.0059 -3.17458,1.820406 -6.77577,2.740235 -10.93359,2.740235 -3.31098,0 -6.91657,-1.525443 -10.74024,-4.164063 l 34.59961,-34.15625 -1.27734,-1.417969 C 494.71499,37.4044 487.48443,34.03715 479.29091,34.03715 Z m -1.00391,7.125 c 4.74183,0 8.83397,1.623111 12.64453,4.384766 l -28.91406,28.714844 c -2.68997,-3.687432 -4.27344,-7.704326 -4.27344,-12.445313 0,-5.443358 1.99359,-10.093216 6.22266,-14.322265 4.31225,-4.31223 8.96619,-6.332032 14.32031,-6.332032 z"
           transform="scale(0.26458333)" />
      </g>
      <g
         id="g1015"
         style="fill:#008040;fill-opacity:1">
        <g
           id="g1002"
           style="fill:#008040;fill-opacity:1">
          <path
             id="path1111"
             style="color:#000000;font-weight:bold;font-size:29.526px;font-family:'Poiret One';-inkscape-font-specification:'Poiret One Bold';fill:#008040;fill-opacity:1;stroke:none;stroke-width:3.99999;-inkscape-stroke:none"
             d="m 0,1.6757812 v 2 85.6972658 h 7.6835938 v -30.6875 C 14.52246,58.399471 20.894645,55.755036 26.457031,50.566406 l 0.0078,-0.0078 c 5.987438,-5.518315 9.115234,-12.366286 9.115234,-20.101563 0,-7.714649 -2.988092,-14.575703 -8.740234,-20.173828 C 21.070868,4.5934205 13.882329,1.6757814 5.6835938,1.6757812 Z M 7.6835938,9.1308594 C 12.774979,9.4031792 17.271149,11.282868 21.341797,15.353516 l 0.0059,0.0078 0.0078,0.0078 c 4.440889,4.3715 6.541015,9.266177 6.541015,15.08789 0,5.829558 -2.068402,10.686458 -6.429687,14.978516 l -0.0078,0.0078 -0.0078,0.0078 C 17.455496,49.446518 12.923699,51.298394 7.6835938,51.5625 Z"
             transform="scale(0.26458333)" />
          <path
             id="path1117"
             style="color:#000000;font-weight:bold;font-size:29.526px;font-family:'Poiret One';-inkscape-font-specification:'Poiret One Bold';fill:#008040;fill-opacity:1;stroke:none;stroke-width:3.99999;-inkscape-stroke:none"
             d="m 62.369141,33.927734 c -7.761324,0 -14.608941,2.855022 -20.144532,8.384766 -5.534538,5.455472 -8.408203,12.165751 -8.408203,19.724609 0,7.551844 2.816542,14.345758 8.253906,20.019532 l 0.0059,0.0078 c 5.456413,5.614571 12.216478,8.533203 19.851562,8.533203 h 1.003907 c 7.704396,0 14.467948,-2.915808 19.855468,-8.541015 5.367149,-5.603932 8.142579,-12.363379 8.142579,-19.908203 0,-7.622503 -2.870443,-14.363575 -8.400391,-19.820313 -5.467245,-5.540459 -12.329308,-8.400391 -20.160156,-8.400391 z m 0.11914,7.123047 c 5.757215,0 10.491445,2.033154 14.63086,6.310547 h 0.0078 v 0.0078 c 4.217707,4.286849 6.236328,9.154756 6.236328,15 0,5.769524 -1.982308,10.610243 -6.126953,14.896484 -0.0015,0.0016 -0.0059,-0.0015 -0.0078,0 -0.0015,0.0016 0.0015,0.0059 0,0.0078 -4.130895,4.196174 -8.898654,6.201175 -14.740235,6.201171 -5.758065,0 -10.596068,-2.011794 -14.882812,-6.222656 -4.210863,-4.28674 -6.222657,-9.124751 -6.222657,-14.882812 0,-5.765152 2.016806,-10.59799 6.238282,-14.888672 4.29583,-4.365116 9.11791,-6.429688 14.867187,-6.429688 z"
             transform="scale(0.26458333)" />
          <path
             id="path1123"
             style="color:#000000;font-weight:bold;font-size:29.526px;font-family:'Poiret One';-inkscape-font-specification:'Poiret One Bold';fill:#008040;fill-opacity:1;stroke:none;stroke-width:3.99999;-inkscape-stroke:none"
             d="m 122.52539,33.927734 c -7.54025,0 -13.13396,3.339251 -17.42187,8.333985 v -7.109375 h -7.566411 v 54.220703 h 7.566411 V 87.371094 58.132812 c 0,-4.623914 1.65383,-8.476814 5.18945,-11.951171 l 0.008,-0.0078 c 0.003,-0.0026 0.005,-0.0052 0.008,-0.0078 3.62612,-3.482873 7.58309,-5.115235 12.2168,-5.115235 4.64058,0 8.35249,1.618537 11.5957,5.064453 l 0.008,0.0059 0.008,0.0078 c 3.33321,3.469263 4.91015,7.344003 4.91016,12.003906 V 89.3731 h 7.57226 V 58.132812 c 0,-6.632707 -2.36262,-12.485483 -6.9375,-17.140624 -4.58555,-4.66528 -10.44666,-7.064454 -17.15625,-7.064454 z"
             transform="scale(0.26458333)" />
          <path
             id="path1129"
             style="color:#000000;font-weight:bold;font-size:29.526px;font-family:'Poiret One';-inkscape-font-specification:'Poiret One Bold';fill:#008040;fill-opacity:1;stroke:none;stroke-width:3.99999;-inkscape-stroke:none"
             d="m 154.89453,14.955078 v 54.228516 c 0,5.955764 2.10315,11.124181 6.19336,15.050781 l 0.008,0.0078 0.008,0.0078 c 4.06403,3.820188 9.1496,5.787109 14.87304,5.787109 h 2.00196 v -7.123047 h -2.00196 c -3.84925,0 -6.93085,-1.252379 -9.64062,-3.890624 -2.60811,-2.613956 -3.875,-5.745221 -3.875,-9.839844 v -26.79685 h 15.40625 V 35.263672 H 162.46094 V 14.955078 Z"
             transform="scale(0.26458333)" />
          <path
             id="path1135"
             style="color:#000000;font-weight:bold;font-size:29.526px;font-family:'Poiret One';-inkscape-font-specification:'Poiret One Bold';fill:#008040;fill-opacity:1;stroke:none;stroke-width:3.99999;-inkscape-stroke:none"
             d="m 208.67188,33.927734 c -7.76345,0 -14.61597,2.85205 -20.15235,8.384766 -5.53453,5.455472 -8.4082,12.165751 -8.4082,19.724609 0,7.551844 2.8224,14.345758 8.25976,20.019532 v 0.0078 h 0.008 c 5.45641,5.614571 12.21452,8.533203 19.84961,8.533203 h 1.0039 c 7.7044,0 14.4699,-2.915808 19.85742,-8.541015 5.36715,-5.603932 8.14258,-12.363379 8.14258,-19.908203 0,-7.622503 -2.87044,-14.363575 -8.40039,-19.820313 -5.46725,-5.540459 -12.32932,-8.400391 -20.16015,-8.400391 z m 0.10937,7.123047 c 5.75721,0 10.49926,2.033154 14.63867,6.310547 l 0.008,0.0078 c 4.21771,4.286849 6.23047,9.154756 6.23047,15 0,5.769524 -1.97449,10.610243 -6.11914,14.896484 -0.002,0.0016 -0.006,-0.0015 -0.008,0 -0.002,0.0016 0.002,0.0059 0,0.0078 -4.13089,4.196174 -8.90842,6.201171 -14.75,6.201171 -5.76304,0 -10.59135,-2.019962 -14.88086,-6.238281 -10e-4,-0.0011 -0.007,0.0011 -0.008,0 -4.2024,-4.283599 -6.20899,-9.11478 -6.20899,-14.867187 0,-5.765152 2.00899,-10.59799 6.23047,-14.888672 4.29583,-4.365116 9.11791,-6.429688 14.86719,-6.429688 z"
             transform="scale(0.26458333)" />
        </g>
        <g
           id="g1005"
           style="fill:#008040;fill-opacity:1">
          <path
             id="path1402"
             style="color:#000000;font-weight:bold;font-size:44.9731px;font-family:'Poiret One';-inkscape-font-specification:'Poiret One Bold';fill:#008040;fill-opacity:1;stroke:none;stroke-width:3.99999;-inkscape-stroke:none"
             d="m 488.82031,10.738281 c -2.11419,0 -4.01065,0.541159 -5.38867,1.939453 -1.37802,1.398295 -1.98633,3.486004 -1.98633,5.72461 0,2.238606 0.60831,4.332175 1.98633,5.730468 1.37802,1.398295 3.27448,1.939454 5.38867,1.939454 2.15966,0 4.07683,-0.526658 5.48633,-1.916016 1.4095,-1.389358 2.04297,-3.503957 2.04297,-5.753906 0,-2.249949 -0.63347,-4.358689 -2.04297,-5.748047 -1.4095,-1.389359 -3.32667,-1.916016 -5.48633,-1.916016 z"
             transform="scale(0.26458333)" />
        </g>
      </g>
    </g>
  </g>
</svg>
